<svg width="300" height="156" viewBox="0 0 300 156" fill="none" xmlns="http://www.w3.org/2000/svg">
<path d="M224.938 26.1875H291.875V37.4375H237.062V65.3125H287.75V75.9375H237.062V107.062H292.812V118H224.938V26.1875Z" fill="#384031"/>
<path d="M184.438 23.8125C193.062 23.8125 200.521 25.4792 206.812 28.8125C215.938 33.6042 221.521 42 223.562 54H211.25C209.75 47.2917 206.646 42.4167 201.938 39.375C197.229 36.2917 191.292 34.75 184.125 34.75C175.625 34.75 168.458 37.9375 162.625 44.3125C156.833 50.6875 153.938 60.1875 153.938 72.8125C153.938 83.7292 156.333 92.625 161.125 99.5C165.917 106.333 173.729 109.75 184.562 109.75C192.854 109.75 199.708 107.354 205.125 102.562C210.583 97.7292 213.375 89.9375 213.5 79.1875H184.75V68.875H225.062V118H217.062L214.062 106.188C209.854 110.812 206.125 114.021 202.875 115.812C197.417 118.896 190.479 120.438 182.062 120.438C171.188 120.438 161.833 116.917 154 109.875C145.458 101.042 141.188 88.9167 141.188 73.5C141.188 58.125 145.354 45.8958 153.688 36.8125C161.604 28.1458 171.854 23.8125 184.438 23.8125Z" fill="#384031"/>
<path d="M126.875 80.375L112.938 39.8125L98.125 80.375H126.875ZM106.438 26.1875H120.5L153.812 118H140.188L130.875 90.5H94.5625L84.625 118H71.875L106.438 26.1875Z" fill="#384031"/>
<path d="M17.875 88.375C18.1667 93.5833 19.3958 97.8125 21.5625 101.062C25.6875 107.146 32.9583 110.188 43.375 110.188C48.0417 110.188 52.2917 109.521 56.125 108.188C63.5417 105.604 67.25 100.979 67.25 94.3125C67.25 89.3125 65.6875 85.75 62.5625 83.625C59.3958 81.5417 54.4375 79.7292 47.6875 78.1875L35.25 75.375C27.125 73.5417 21.375 71.5208 18 69.3125C12.1667 65.4792 9.25 59.75 9.25 52.125C9.25 43.875 12.1042 37.1042 17.8125 31.8125C23.5208 26.5208 31.6042 23.875 42.0625 23.875C51.6875 23.875 59.8542 26.2083 66.5625 30.875C73.3125 35.5 76.6875 42.9167 76.6875 53.125H65C64.375 48.2083 63.0417 44.4375 61 41.8125C57.2083 37.0208 50.7708 34.625 41.6875 34.625C34.3542 34.625 29.0833 36.1667 25.875 39.25C22.6667 42.3333 21.0625 45.9167 21.0625 50C21.0625 54.5 22.9375 57.7917 26.6875 59.875C29.1458 61.2083 34.7083 62.875 43.375 64.875L56.25 67.8125C62.4583 69.2292 67.25 71.1667 70.625 73.625C76.4583 77.9167 79.375 84.1458 79.375 92.3125C79.375 102.479 75.6667 109.75 68.25 114.125C60.875 118.5 52.2917 120.688 42.5 120.688C31.0833 120.688 22.1458 117.771 15.6875 111.938C9.22917 106.146 6.0625 98.2917 6.1875 88.375H17.875Z" fill="#384031"/>
<path d="M24.1406 126.047V128.781H16.4062V149H13.25V128.781H5.51562V126.047H24.1406ZM29.0588 144.547C29.0588 145.359 29.3556 146 29.9494 146.469C30.5431 146.938 31.2463 147.172 32.0588 147.172C33.0483 147.172 34.0067 146.943 34.9338 146.484C36.4963 145.724 37.2775 144.479 37.2775 142.75V140.484C36.9338 140.703 36.491 140.885 35.9494 141.031C35.4077 141.177 34.8765 141.281 34.3556 141.344L32.6525 141.562C31.6317 141.698 30.866 141.911 30.3556 142.203C29.491 142.693 29.0588 143.474 29.0588 144.547ZM35.8713 138.859C36.5171 138.776 36.9494 138.505 37.1681 138.047C37.2931 137.797 37.3556 137.438 37.3556 136.969C37.3556 136.01 37.0119 135.318 36.3244 134.891C35.6473 134.453 34.6733 134.234 33.4025 134.234C31.9338 134.234 30.8921 134.63 30.2775 135.422C29.9338 135.859 29.7098 136.51 29.6056 137.375H26.9806C27.0327 135.312 27.6994 133.88 28.9806 133.078C30.2723 132.266 31.7671 131.859 33.465 131.859C35.4338 131.859 37.0327 132.234 38.2619 132.984C39.4806 133.734 40.09 134.901 40.09 136.484V146.125C40.09 146.417 40.1473 146.651 40.2619 146.828C40.3869 147.005 40.6421 147.094 41.0275 147.094C41.1525 147.094 41.2931 147.089 41.4494 147.078C41.6056 147.057 41.7723 147.031 41.9494 147V149.078C41.5119 149.203 41.1785 149.281 40.9494 149.312C40.7202 149.344 40.4077 149.359 40.0119 149.359C39.0431 149.359 38.34 149.016 37.9025 148.328C37.6733 147.964 37.5119 147.448 37.4181 146.781C36.8452 147.531 36.0223 148.182 34.9494 148.734C33.8765 149.286 32.6942 149.562 31.4025 149.562C29.8504 149.562 28.5796 149.094 27.59 148.156C26.6108 147.208 26.1213 146.026 26.1213 144.609C26.1213 143.057 26.6056 141.854 27.5744 141C28.5431 140.146 29.814 139.62 31.3869 139.422L35.8713 138.859ZM46.9613 132.266H50.6019L54.4456 138.156L58.3363 132.266L61.7581 132.344L56.1175 140.422L62.0081 149H58.4144L54.2581 142.719L50.2269 149H46.6644L52.555 140.422L46.9613 132.266ZM91.1881 125.422C94.0944 125.422 96.3496 126.188 97.9538 127.719C99.5579 129.25 100.449 130.99 100.626 132.938H97.5944C97.2506 131.458 96.5631 130.286 95.5319 129.422C94.511 128.557 93.0735 128.125 91.2194 128.125C88.959 128.125 87.1308 128.922 85.735 130.516C84.3496 132.099 83.6569 134.531 83.6569 137.812C83.6569 140.5 84.2819 142.682 85.5319 144.359C86.7923 146.026 88.6673 146.859 91.1569 146.859C93.4485 146.859 95.1933 145.979 96.3913 144.219C97.0267 143.292 97.5006 142.073 97.8131 140.562H100.844C100.574 142.979 99.6777 145.005 98.1569 146.641C96.334 148.609 93.8756 149.594 90.7819 149.594C88.1152 149.594 85.8756 148.786 84.0631 147.172C81.6777 145.036 80.485 141.74 80.485 137.281C80.485 133.896 81.3808 131.12 83.1725 128.953C85.11 126.599 87.7819 125.422 91.1881 125.422ZM114.747 147.188C116.611 147.188 117.887 146.484 118.575 145.078C119.273 143.661 119.622 142.089 119.622 140.359C119.622 138.797 119.372 137.526 118.872 136.547C118.08 135.005 116.716 134.234 114.778 134.234C113.059 134.234 111.809 134.891 111.028 136.203C110.247 137.516 109.856 139.099 109.856 140.953C109.856 142.734 110.247 144.219 111.028 145.406C111.809 146.594 113.049 147.188 114.747 147.188ZM114.856 131.781C117.012 131.781 118.835 132.5 120.325 133.938C121.815 135.375 122.559 137.49 122.559 140.281C122.559 142.979 121.903 145.208 120.591 146.969C119.278 148.729 117.242 149.609 114.481 149.609C112.179 149.609 110.351 148.833 108.997 147.281C107.643 145.719 106.966 143.625 106.966 141C106.966 138.188 107.679 135.948 109.106 134.281C110.533 132.615 112.45 131.781 114.856 131.781ZM129.759 132.266H132.431V134.641C133.222 133.661 134.061 132.958 134.946 132.531C135.832 132.104 136.816 131.891 137.899 131.891C140.274 131.891 141.879 132.719 142.712 134.375C143.17 135.281 143.399 136.578 143.399 138.266V149H140.54V138.453C140.54 137.432 140.389 136.609 140.087 135.984C139.587 134.943 138.681 134.422 137.368 134.422C136.701 134.422 136.155 134.49 135.728 134.625C134.957 134.854 134.28 135.312 133.696 136C133.228 136.552 132.92 137.125 132.774 137.719C132.639 138.302 132.571 139.141 132.571 140.234V149H129.759V132.266ZM153.083 143.75C153.166 144.688 153.401 145.406 153.786 145.906C154.495 146.812 155.724 147.266 157.474 147.266C158.515 147.266 159.432 147.042 160.224 146.594C161.015 146.135 161.411 145.432 161.411 144.484C161.411 143.766 161.094 143.219 160.458 142.844C160.052 142.615 159.25 142.349 158.052 142.047L155.818 141.484C154.39 141.13 153.338 140.734 152.661 140.297C151.453 139.536 150.849 138.484 150.849 137.141C150.849 135.557 151.416 134.276 152.552 133.297C153.698 132.318 155.234 131.828 157.161 131.828C159.682 131.828 161.5 132.568 162.614 134.047C163.312 134.984 163.651 135.995 163.63 137.078H160.974C160.922 136.443 160.698 135.865 160.302 135.344C159.656 134.604 158.536 134.234 156.943 134.234C155.88 134.234 155.073 134.438 154.521 134.844C153.979 135.25 153.708 135.786 153.708 136.453C153.708 137.182 154.068 137.766 154.786 138.203C155.203 138.464 155.818 138.693 156.63 138.891L158.489 139.344C160.51 139.833 161.864 140.307 162.552 140.766C163.646 141.484 164.193 142.615 164.193 144.156C164.193 145.646 163.625 146.932 162.489 148.016C161.364 149.099 159.646 149.641 157.333 149.641C154.844 149.641 153.078 149.078 152.036 147.953C151.005 146.818 150.453 145.417 150.38 143.75H153.083ZM174.064 132.266V143.375C174.064 144.229 174.199 144.927 174.47 145.469C174.97 146.469 175.902 146.969 177.267 146.969C179.225 146.969 180.559 146.094 181.267 144.344C181.652 143.406 181.845 142.12 181.845 140.484V132.266H184.658V149H182.001L182.033 146.531C181.668 147.167 181.215 147.703 180.673 148.141C179.6 149.016 178.298 149.453 176.767 149.453C174.381 149.453 172.756 148.656 171.892 147.062C171.423 146.208 171.189 145.068 171.189 143.641V132.266H174.064ZM192.982 126.047H195.794V149H192.982V126.047ZM204.431 127.594H207.275V132.266H209.947V134.562H207.275V145.484C207.275 146.068 207.473 146.458 207.869 146.656C208.087 146.771 208.452 146.828 208.962 146.828C209.098 146.828 209.244 146.828 209.4 146.828C209.556 146.818 209.739 146.802 209.947 146.781V149C209.624 149.094 209.285 149.161 208.931 149.203C208.587 149.245 208.212 149.266 207.806 149.266C206.494 149.266 205.603 148.932 205.134 148.266C204.666 147.589 204.431 146.714 204.431 145.641V134.562H202.166V132.266H204.431V127.594ZM218.771 144.547C218.771 145.359 219.068 146 219.662 146.469C220.256 146.938 220.959 147.172 221.771 147.172C222.761 147.172 223.719 146.943 224.646 146.484C226.209 145.724 226.99 144.479 226.99 142.75V140.484C226.646 140.703 226.204 140.885 225.662 141.031C225.12 141.177 224.589 141.281 224.068 141.344L222.365 141.562C221.344 141.698 220.579 141.911 220.068 142.203C219.204 142.693 218.771 143.474 218.771 144.547ZM225.584 138.859C226.23 138.776 226.662 138.505 226.881 138.047C227.006 137.797 227.068 137.438 227.068 136.969C227.068 136.01 226.724 135.318 226.037 134.891C225.36 134.453 224.386 134.234 223.115 134.234C221.646 134.234 220.605 134.63 219.99 135.422C219.646 135.859 219.422 136.51 219.318 137.375H216.693C216.745 135.312 217.412 133.88 218.693 133.078C219.985 132.266 221.48 131.859 223.178 131.859C225.146 131.859 226.745 132.234 227.974 132.984C229.193 133.734 229.803 134.901 229.803 136.484V146.125C229.803 146.417 229.86 146.651 229.974 146.828C230.099 147.005 230.355 147.094 230.74 147.094C230.865 147.094 231.006 147.089 231.162 147.078C231.318 147.057 231.485 147.031 231.662 147V149.078C231.224 149.203 230.891 149.281 230.662 149.312C230.433 149.344 230.12 149.359 229.724 149.359C228.756 149.359 228.053 149.016 227.615 148.328C227.386 147.964 227.224 147.448 227.131 146.781C226.558 147.531 225.735 148.182 224.662 148.734C223.589 149.286 222.407 149.562 221.115 149.562C219.563 149.562 218.292 149.094 217.303 148.156C216.323 147.208 215.834 146.026 215.834 144.609C215.834 143.057 216.318 141.854 217.287 141C218.256 140.146 219.526 139.62 221.099 139.422L225.584 138.859ZM238.268 132.266H240.939V134.641C241.731 133.661 242.57 132.958 243.455 132.531C244.34 132.104 245.325 131.891 246.408 131.891C248.783 131.891 250.387 132.719 251.221 134.375C251.679 135.281 251.908 136.578 251.908 138.266V149H249.049V138.453C249.049 137.432 248.898 136.609 248.596 135.984C248.096 134.943 247.189 134.422 245.877 134.422C245.21 134.422 244.663 134.49 244.236 134.625C243.465 134.854 242.788 135.312 242.205 136C241.736 136.552 241.429 137.125 241.283 137.719C241.148 138.302 241.08 139.141 241.08 140.234V149H238.268V132.266ZM266.373 131.781C268.259 131.781 269.79 132.24 270.967 133.156C272.154 134.073 272.868 135.651 273.107 137.891H270.373C270.206 136.859 269.826 136.005 269.232 135.328C268.639 134.641 267.686 134.297 266.373 134.297C264.581 134.297 263.3 135.172 262.529 136.922C262.029 138.057 261.779 139.458 261.779 141.125C261.779 142.802 262.134 144.214 262.842 145.359C263.55 146.505 264.665 147.078 266.186 147.078C267.352 147.078 268.274 146.724 268.951 146.016C269.639 145.297 270.113 144.318 270.373 143.078H273.107C272.795 145.297 272.014 146.922 270.764 147.953C269.514 148.974 267.915 149.484 265.967 149.484C263.779 149.484 262.035 148.688 260.732 147.094C259.43 145.49 258.779 143.49 258.779 141.094C258.779 138.156 259.493 135.87 260.92 134.234C262.347 132.599 264.165 131.781 266.373 131.781ZM290.213 132.266H293.323C292.927 133.339 292.046 135.786 290.682 139.609C289.661 142.484 288.807 144.828 288.119 146.641C286.494 150.911 285.349 153.516 284.682 154.453C284.015 155.391 282.869 155.859 281.244 155.859C280.849 155.859 280.541 155.844 280.323 155.812C280.114 155.781 279.854 155.724 279.541 155.641V153.078C280.031 153.214 280.385 153.297 280.604 153.328C280.823 153.359 281.015 153.375 281.182 153.375C281.703 153.375 282.083 153.286 282.323 153.109C282.573 152.943 282.781 152.734 282.948 152.484C283 152.401 283.187 151.974 283.51 151.203C283.833 150.432 284.067 149.859 284.213 149.484L278.026 132.266H281.213L285.698 145.891L290.213 132.266Z" fill="#384031"/>
</svg>
